<?xml version="1.0" encoding="UTF-8" standalone="no"?>
<svg
   version="1.0"
   width="808.000000pt"
   height="808.000000pt"
   viewBox="0 0 808.000000 808.000000"
   preserveAspectRatio="xMidYMid meet"
   id="svg2"
   sodipodi:docname="svg-icon.svg"
   inkscape:version="1.3.2 (091e20e, 2023-11-25, custom)"
   xmlns:inkscape="http://www.inkscape.org/namespaces/inkscape"
   xmlns:sodipodi="http://sodipodi.sourceforge.net/DTD/sodipodi-0.dtd"
   xmlns="http://www.w3.org/2000/svg"
   xmlns:svg="http://www.w3.org/2000/svg">
  <defs
     id="defs2">
    <inkscape:path-effect
       effect="fillet_chamfer"
       id="path-effect1"
       is_visible="true"
       lpeversion="1"
       nodesatellites_param="F,0,0,1,0,0,0,1 @ F,0,1,1,0,4040,0,1 @ F,0,0,1,0,0,0,1 @ F,0,1,1,0,4040,0,1 @ F,0,0,1,0,0,0,1 @ F,0,1,1,0,4040,0,1 @ F,0,0,1,0,0,0,1 @ F,0,1,1,0,4040,0,1 | F,0,0,1,0,0,0,1 @ F,0,0,1,0,0,0,1 @ F,0,0,1,0,0,0,1 @ F,0,0,1,0,0,0,1 @ F,0,0,1,0,0,0,1 @ F,0,0,1,0,0,0,1 @ F,0,0,1,0,0,0,1 | F,0,0,1,0,0,0,1 @ F,0,0,1,0,0,0,1 @ F,0,0,1,0,0,0,1 @ F,0,0,1,0,0,0,1 @ F,0,0,1,0,0,0,1 @ F,0,0,1,0,0,0,1 @ F,0,0,1,0,0,0,1 @ F,0,0,1,0,0,0,1 @ F,0,0,1,0,0,0,1 @ F,0,0,1,0,0,0,1 @ F,0,0,1,0,0,0,1 @ F,0,0,1,0,0,0,1 @ F,0,0,1,0,0,0,1 @ F,0,0,1,0,0,0,1 @ F,0,0,1,0,0,0,1 @ F,0,0,1,0,0,0,1 @ F,0,0,1,0,0,0,1 @ F,0,0,1,0,0,0,1 @ F,0,0,1,0,0,0,1 @ F,0,0,1,0,0,0,1 @ F,0,0,1,0,0,0,1 @ F,0,0,1,0,0,0,1 @ F,0,0,1,0,0,0,1 @ F,0,0,1,0,0,0,1 @ F,0,0,1,0,0,0,1 @ F,0,0,1,0,0,0,1 @ F,0,0,1,0,0,0,1 @ F,0,0,1,0,0,0,1 @ F,0,0,1,0,0,0,1 @ F,0,0,1,0,0,0,1 @ F,0,0,1,0,0,0,1"
       radius="0"
       unit="px"
       method="auto"
       mode="F"
       chamfer_steps="1"
       flexible="false"
       use_knot_distance="true"
       apply_no_radius="true"
       apply_with_radius="true"
       only_selected="false"
       hide_knots="false" />
  </defs>
  <sodipodi:namedview
     id="namedview2"
     pagecolor="#505050"
     bordercolor="#eeeeee"
     borderopacity="1"
     inkscape:showpageshadow="0"
     inkscape:pageopacity="0"
     inkscape:pagecheckerboard="0"
     inkscape:deskcolor="#505050"
     inkscape:document-units="pt"
     inkscape:zoom="0.74429989"
     inkscape:cx="631.4659"
     inkscape:cy="502.48563"
     inkscape:window-width="2560"
     inkscape:window-height="1369"
     inkscape:window-x="-8"
     inkscape:window-y="-8"
     inkscape:window-maximized="1"
     inkscape:current-layer="svg2" />
  <g
     transform="translate(0.000000,808.000000) scale(0.100000,-0.100000)"
     fill="#000000"
     stroke="none"
     id="g2"
     style="fill:#191b26;fill-opacity:1">
    <path
       d="M 0,4040 A 4040,4040 135 0 1 4040,0 4040,4040 45 0 1 8080,4040 4040,4040 135 0 1 4040,8080 4040,4040 45 0 1 0,4040 Z m 4819,2941 c 28,-28 34,-92 29,-286 -6,-172 -13,-207 -45,-219 -30,-12 -1595,-8 -1606,3 -18,18 -26,108 -26,307 -1,135 2,193 11,202 9,9 204,12 815,12 780,0 804,-1 822,-19 z m -369,-875 c 162,-20 294,-56 513,-140 130,-50 252,-119 483,-272 60,-41 120,-74 132,-74 38,0 207,158 307,287 77,99 100,94 256,-53 134,-127 197,-197 205,-232 9,-32 -11,-57 -123,-158 -229,-208 -257,-255 -198,-335 326,-449 440,-769 494,-1379 24,-271 -52,-745 -164,-1025 -129,-322 -333,-626 -589,-878 -43,-43 -95,-90 -115,-105 -20,-14 -52,-40 -71,-57 -130,-113 -537,-345 -690,-393 -144,-45 -251,-73 -370,-96 -237,-45 -297,-51 -545,-50 h -240 l -200,42 c -341,70 -499,130 -788,301 -447,263 -773,617 -1003,1089 -119,244 -127,271 -209,688 -42,213 -50,441 -24,644 16,125 86,475 111,550 25,79 193,417 245,496 21,31 52,78 69,105 29,47 68,98 167,219 86,107 319,318 447,407 254,176 426,263 666,338 164,51 254,69 414,84 63,6 131,13 150,15 75,9 561,-4 670,-18 z"
       id="path1"
       style="fill:#191b26;fill-opacity:1"
       inkscape:path-effect="#path-effect1"
       inkscape:original-d="M0 4040 l0 -4040 4040 0 4040 0 0 4040 0 4040 -4040 0 -4040 0 0 -4040z m4819 2941 c28 -28 34 -92 29 -286 -6 -172 -13 -207 -45 -219 -30 -12 -1595 -8 -1606 3 -18 18 -26 108 -26 307 -1 135 2 193 11 202 9 9 204 12 815 12 780 0 804 -1 822 -19z m-369 -875 c162 -20 294 -56 513 -140 130 -50 252 -119 483 -272 60 -41 120 -74 132 -74 38 0 207 158 307 287 77 99 100 94 256 -53 134 -127 197 -197 205 -232 9 -32 -11 -57 -123 -158 -229 -208 -257 -255 -198 -335 326 -449 440 -769 494 -1379 24 -271 -52 -745 -164 -1025 -129 -322 -333 -626 -589 -878 -43 -43 -95 -90 -115 -105 -20 -14 -52 -40 -71 -57 -130 -113 -537 -345 -690 -393 -144 -45 -251 -73 -370 -96 -237 -45 -297 -51 -545 -50 l-240 0 -200 42 c-341 70 -499 130 -788 301 -447 263 -773 617 -1003 1089 -119 244 -127 271 -209 688 -42 213 -50 441 -24 644 16 125 86 475 111 550 25 79 193 417 245 496 21 31 52 78 69 105 29 47 68 98 167 219 86 107 319 318 447 407 254 176 426 263 666 338 164 51 254 69 414 84 63 6 131 13 150 15 75 9 561 -4 670 -18z" />
    <path
       d="M3865 5602 c-102 -6 -298 -36 -380 -58 -190 -50 -522 -224 -709 -372 -195 -154 -382 -384 -496 -612 -29 -58 -60 -116 -70 -130 -32 -46 -100 -264 -126 -400 -61 -327 -37 -687 69 -1010 41 -126 169 -375 268 -519 242 -354 657 -640 1094 -752 354 -91 612 -92 954 -5 258 66 474 169 718 341 133 94 235 189 334 311 239 296 365 562 420 889 20 118 24 173 24 355 -1 190 -4 234 -29 375 -35 197 -67 298 -150 463 -144 287 -301 496 -491 655 -103 86 -302 215 -405 263 -30 14 -95 45 -145 69 -154 76 -358 119 -634 134 -86 5 -167 8 -181 8 -14 -1 -43 -3 -65 -5z m354 -571 c13 -3 34 -19 45 -34 21 -28 21 -35 23 -785 3 -785 2 -801 -38 -823 -23 -12 -378 -24 -440 -15 -36 5 -49 13 -60 34 -12 22 -15 161 -17 779 -3 794 -2 826 41 843 25 10 410 11 446 1z"
       id="path2"
       style="fill:#191b26;fill-opacity:1" />
  </g>
  <path
     style="fill:#9cb0ff;stroke-width:0.950029;fill-opacity:1"
     d="M 474.53968,919.18367 C 433.34102,910.18039 418.31485,905.34849 394.2622,893.36915 313.34425,853.06826 259.77367,796.64206 223.92035,713.94709 c -6.14467,-14.17256 -9.51285,-26.31327 -15.41857,-55.57672 -6.65219,-32.96231 -8.19334,-46.31507 -8.16901,-70.77719 0.0251,-25.21984 2.50862,-43.29272 11.94537,-86.92769 3.83525,-17.73399 6.45088,-24.42972 20.54525,-52.59371 20.32938,-40.62307 36.05737,-63.0282 63.50296,-90.46239 18.05478,-18.0473 34.92571,-32.1275 52.69956,-43.9822 31.92664,-21.29424 55.93979,-32.49103 90.8377,-42.35555 15.43906,-4.36413 25.05793,-6.03865 49.21797,-8.56818 20.43001,-2.139 35.72376,-2.34258 71.43576,-0.9509 41.7607,1.62739 59.01532,4.89741 93.5779,17.73449 21.34076,7.9263 33.48153,14.3395 62.22692,32.87058 20.91216,13.48129 26.04691,16.22253 28.99925,15.48154 5.21194,-1.30811 21.41935,-16.26776 35.34981,-32.62831 5.45512,-6.40675 10.70817,-12.0713 11.67343,-12.58789 2.33854,-1.25155 6.27473,-1.18907 8.83009,0.14016 5.9434,3.09161 33.3663,29.17431 40.16642,38.20343 6.64227,8.81953 5.90899,10.88646 -8.6404,24.35527 -30.15052,27.91125 -35.69623,35.26078 -32.4568,43.01384 0.73324,1.75488 5.40077,9.15018 10.3723,16.43398 33.76773,49.47325 47.09034,84.82603 55.49809,147.26929 3.44737,25.60311 3.64643,55.86094 0.51961,78.98158 -2.80082,20.71003 -7.06813,42.04729 -11.65536,58.27861 -19.42928,68.74801 -72.39258,139.82882 -132.86199,178.31095 -27.4752,17.48495 -56.19417,32.38349 -72.77152,37.7517 -13.8446,4.48326 -37.22505,10.31174 -53.4132,13.3153 -23.95044,4.4438 -34.46051,5.23218 -68.65975,5.15029 l -31.83181,-0.0762 z m 80.7525,-66.55703 c 43.16771,-4.84261 83.01163,-18.71557 119.42235,-41.58078 34.38214,-21.59129 57.34523,-43.84347 79.53184,-77.06959 21.94108,-32.85843 32.92756,-60.89148 39.15742,-99.91392 1.75664,-11.00322 2.03099,-16.63454 2.00931,-41.24401 -0.0266,-30.23316 -0.60525,-36.58985 -5.57777,-61.27689 -4.79803,-23.82082 -14.99934,-48.46686 -31.45832,-76.00236 -15.08461,-25.2362 -34.94184,-48.94031 -53.93021,-64.37796 -14.79033,-12.02461 -38.02626,-26.56922 -58.27923,-36.48011 -20.18699,-9.8786 -32.6594,-14.57609 -47.36772,-17.84016 -29.17133,-6.4737 -72.73022,-8.88548 -98.13436,-5.43354 -32.78211,4.45447 -47.15496,8.52486 -71.13662,20.14588 -63.40132,30.72299 -97.39576,63.22991 -129.11113,123.4615 -10.23376,19.43524 -13.71234,28.23569 -18.77603,47.50147 -12.79273,48.67237 -11.01062,103.70406 4.91034,151.63149 6.66957,20.07763 26.17043,56.58546 41.671,78.01287 7.48394,10.34553 34.68619,37.49622 46.08853,46.00118 35.24864,26.29185 69.89618,41.92454 111.52957,50.32124 23.86616,4.81338 49.72722,6.35634 69.45103,4.14369 z"
     id="path3"
     transform="scale(0.75)" />
  <path
     style="fill:#9cb0ff;stroke-width:0.950029;fill-opacity:1"
     d="m 506.24508,626.89846 c -1.37261,-0.25175 -3.48804,-1.51406 -4.70096,-2.80515 -2.17604,-2.3163 -2.21448,-2.74083 -2.898,-32.01167 -0.98741,-42.28488 -0.93148,-155.73039 0.0837,-169.70245 1.24623,-17.1526 -1.7595,-15.76661 34.1924,-15.76661 28.28648,0 29.4522,0.0722 32.03747,1.9855 5.85937,4.33628 5.53298,-2.11336 5.53298,109.33557 v 101.82079 l -1.99767,2.68245 c -1.54076,2.06891 -3.06183,2.8262 -6.65021,3.31093 -5.92405,0.80025 -52.27953,1.75957 -55.59969,1.15064 z"
     id="path4"
     transform="scale(0.75)" />
  <path
     style="fill:#9cb0ff;stroke-width:0.950029;fill-opacity:1"
     d="m 438.16632,213.53472 -11.6726,-0.31216 -1.01205,-2.58306 c -1.31703,-3.36148 -2.71158,-43.66548 -1.91238,-55.27026 l 0.61883,-8.98584 3.73121,-0.77214 c 2.05217,-0.42468 50.63703,-0.65618 107.96636,-0.51445 118.88189,0.2939 107.20593,-0.68405 109.26497,9.15171 1.29451,6.18374 0.58437,46.6561 -0.92566,52.75406 -1.8219,7.3574 7.05563,6.74881 -99.17926,6.79917 -52.36375,0.0248 -100.45949,-0.0953 -106.87942,-0.26703 z"
     id="path5"
     transform="scale(0.75)" />
</svg>
